# xmcd
#
# Track frame offsets: 
#        150
#        13540
#        26459
#        39839
#        52737
#        63464
#        82933
#        95149
#        109181
#        124571
#        139144
#        153983
#        166285
#        179835
#        193044
#        205748
#        216450
#        228378
#        238580
#        249860
#
# Disc length: 3496 seconds
#
# Revision: 0
# Processed by: cddbd v1.5.2PL0 Copyright (c) Steve Scherf et al.
# Submitted via: ExactAudioCopy v0.99pb4
#
DISCID=090da614
DTITLE=Louis Armstrong - Louis Armstrong - The Essential Collection
DYEAR=1900
DGENRE=Blues
TTITLE0=Moon River
TTITLE1=You'll Never Walk Alone
TTITLE2=Sunrise, Sunrise
TTITLE3=The Gipsy In My Soul
TTITLE4=The Happy Time
TTITLE5=Talk To The Animals
TTITLE6=Rosie
TTITLE7=Bye'N'Bye
TTITLE8=I Believe
TTITLE9=When The Saints Go Marchin' In
TTITLE10=I Will Wait For You
TTITLE11=Short But Sweet
TTITLE12=Tin Roof Blues
TTITLE13=That's My Desire
TTITLE14=Tyree's Blues
TTITLE15=Mame
TTITLE16=The Circle Of Your Arms
TTITLE17=So Long Dearie
TTITLE18=Cheesecake
TTITLE19=Sweet Sue-Just You
EXTD=
EXTT0=
EXTT1=
EXTT2=
EXTT3=
EXTT4=
EXTT5=
EXTT6=
EXTT7=
EXTT8=
EXTT9=
EXTT10=
EXTT11=
EXTT12=
EXTT13=
EXTT14=
EXTT15=
EXTT16=
EXTT17=
EXTT18=
EXTT19=
PLAYORDER=
